<svg id="bold" enable-background="new 0 0 32 32" height="512" viewBox="0 0 32 32" width="512" xmlns="http://www.w3.org/2000/svg"><path d="m26 32h-20c-3.314 0-6-2.686-6-6v-20c0-3.314 2.686-6 6-6h20c3.314 0 6 2.686 6 6v20c0 3.314-2.686 6-6 6z" fill="#f5e6fe"/><path d="m23.809 17.94-2.333-1.833c-.151-.118-.356-.14-.527-.056-.172.084-.282.258-.282.45v1.227c-1.889.319-3.333 1.962-3.333 3.94v1.667c-.001.367.298.665.666.665s.667-.299.667-.667v-1.667c0-1.239.853-2.274 2-2.572v1.072c0 .191.109.366.282.45.069.034.144.05.218.05.11 0 .219-.036.309-.107l2.333-1.833c.121-.094.191-.239.191-.393 0-.153-.07-.298-.191-.393z" fill="#d9a4fc"/><path d="m20 8h-10c-1.1 0-2 .9-2 2v8.667c0 1.1.9 2 2 2h6.1c.087-.467.233-.913.44-1.333h-6.54c-.367 0-.667-.3-.667-.667v-7.333h11.334v3.407c.44-.127.92-.08 1.333.127v-4.868c0-1.1-.9-2-2-2z" fill="#be63f9"/></svg>